<svg width="24" height="24" viewBox="0 0 24 24" fill="none" xmlns="http://www.w3.org/2000/svg">
<g clip-path="url(#clip0_154_4)">
<path d="M2.60273 16.4615V4.04934C2.60273 1.98542 4.28908 0.299072 6.353 0.299072H19.4503C21.5142 0.299072 23.2006 1.98542 23.2006 4.04934V17.8012C23.2006 19.8651 21.5139 21.5514 19.4503 21.5514H8.03906V23.1159C8.03906 23.439 7.77685 23.7012 7.4537 23.7012H1.38468C1.06152 23.7012 0.799316 23.439 0.799316 23.1159V17.0469C0.799316 16.7237 1.06152 16.4615 1.38468 16.4615H2.60273ZM2.44002 20.4615C2.02871 19.8158 3.01149 19.1893 3.42309 19.835L3.8497 20.5032L5.43116 18.2777C5.87564 17.6532 6.82667 18.3295 6.38219 18.9543L4.299 21.8845C4.06259 22.2173 3.5566 22.2111 3.33266 21.8598L2.44002 20.4615ZM22.0301 15.8767H10.7859C10.016 15.8767 10.016 14.7063 10.7859 14.7063H22.0301V4.04934C22.0301 2.63172 20.8679 1.46951 19.4503 1.46951H6.353C4.93538 1.46951 3.77317 2.63172 3.77317 4.04934V16.4615H7.4537C7.77685 16.4615 8.03906 16.7237 8.03906 17.0469V20.381H19.4503C20.8679 20.381 22.0301 19.2188 22.0301 17.8012V15.8767ZM6.7782 11.9892C6.7782 12.7589 5.60776 12.7589 5.60776 11.9892C5.60776 10.3029 6.54746 8.76481 8.03679 7.98726C7.53024 7.45406 7.24393 6.74681 7.24393 6.00923C7.24393 4.42096 8.53172 3.13317 10.12 3.13317C11.7083 3.13317 12.996 4.42096 12.996 6.00923C12.996 6.74681 12.7097 7.45406 12.2032 7.98726C13.6925 8.76481 14.6322 10.3029 14.6322 11.9892C14.6322 12.7589 13.4618 12.7589 13.4618 11.9892C13.4618 10.4696 12.439 9.13927 10.9687 8.75517C10.6968 8.83964 10.4043 8.88528 10.12 8.88528C9.83567 8.88528 9.54285 8.83964 9.27129 8.75517C7.80095 9.13927 6.7782 10.4696 6.7782 11.9892ZM10.12 7.71485C11.0727 7.71485 11.8256 6.95459 11.8256 6.00923C11.8256 5.06727 11.0619 4.30361 10.12 4.30361C9.17803 4.30361 8.41437 5.06727 8.41437 6.00923C8.41437 6.97868 9.18937 7.71485 10.12 7.71485ZM16.0402 12.6041C15.2706 12.6041 15.2706 11.4336 16.0402 11.4336H19.6105C20.3801 11.4336 20.3801 12.6041 19.6105 12.6041H16.0402ZM16.0402 9.15316C15.2706 9.15316 15.2706 7.98272 16.0402 7.98272H19.6105C20.3801 7.98272 20.3801 9.15316 19.6105 9.15316H16.0402ZM16.0402 5.70195C15.2706 5.70195 15.2706 4.53152 16.0402 4.53152H19.6105C20.3801 4.53152 20.3801 5.70195 19.6105 5.70195H16.0402ZM6.86862 17.6319H1.96975V22.5305H6.86862V17.6319Z" fill="#1C1B1F"/>
</g>
<defs>
<clipPath id="clip0_154_4">
<rect width="24" height="24" fill="white"/>
</clipPath>
</defs>
</svg>
