<svg width="42" height="42" viewBox="0 0 42 42" fill="none" xmlns="http://www.w3.org/2000/svg">
<path d="M4.55441 28.8077V7.0864C4.55441 3.47454 7.50552 0.523438 11.1174 0.523438H34.0377C37.6495 0.523438 40.6006 3.47454 40.6006 7.0864V31.1521C40.6006 34.764 37.649 37.7151 34.0377 37.7151H14.068V40.4529C14.068 41.0184 13.6091 41.4772 13.0436 41.4772H2.42282C1.8573 41.4772 1.39844 41.0184 1.39844 40.4529V29.8321C1.39844 29.2665 1.8573 28.8077 2.42282 28.8077H4.55441ZM4.26967 35.8077C3.54988 34.6776 5.26974 33.5813 5.99003 34.7114L6.73661 35.8806L9.50417 31.986C10.282 30.8931 11.9463 32.0768 11.1685 33.1701L7.52288 38.2979C7.10916 38.8803 6.22368 38.8694 5.83179 38.2548L4.26967 35.8077ZM38.5524 27.7843H18.8749C17.5276 27.7843 17.5276 25.736 18.8749 25.736H38.5524V7.0864C38.5524 4.60557 36.5185 2.5717 34.0377 2.5717H11.1174C8.63655 2.5717 6.60268 4.60557 6.60268 7.0864V28.8077H13.0436C13.6091 28.8077 14.068 29.2665 14.068 29.8321V35.6668H34.0377C36.5185 35.6668 38.5524 33.6329 38.5524 31.1521V27.7843ZM11.8615 20.9812C11.8615 22.3281 9.81322 22.3281 9.81322 20.9812C9.81322 18.0301 11.4577 15.3385 14.064 13.9778C13.1775 13.0447 12.6765 11.807 12.6765 10.5162C12.6765 7.73675 14.9302 5.48311 17.7096 5.48311C20.4891 5.48311 22.7427 7.73675 22.7427 10.5162C22.7427 11.807 22.2417 13.0447 21.3552 13.9778C23.9615 15.3385 25.606 18.0301 25.606 20.9812C25.606 22.3281 23.5577 22.3281 23.5577 20.9812C23.5577 18.3218 21.7679 15.9938 19.1948 15.3216C18.7191 15.4694 18.2072 15.5493 17.7096 15.5493C17.2121 15.5493 16.6996 15.4694 16.2244 15.3216C13.6513 15.9938 11.8615 18.3218 11.8615 20.9812ZM17.7096 13.501C19.3769 13.501 20.6944 12.1706 20.6944 10.5162C20.6944 8.86778 19.358 7.53137 17.7096 7.53137C16.0612 7.53137 14.7248 8.86778 14.7248 10.5162C14.7248 12.2128 16.081 13.501 17.7096 13.501ZM28.07 22.0572C26.7231 22.0572 26.7231 20.0089 28.07 20.0089H34.3179C35.6648 20.0089 35.6648 22.0572 34.3179 22.0572H28.07ZM28.07 16.0181C26.7231 16.0181 26.7231 13.9698 28.07 13.9698H34.3179C35.6648 13.9698 35.6648 16.0181 34.3179 16.0181H28.07ZM28.07 9.97847C26.7231 9.97847 26.7231 7.93021 28.07 7.93021H34.3179C35.6648 7.93021 35.6648 9.97847 34.3179 9.97847H28.07ZM12.0197 30.8559H3.4467V39.4285H12.0197V30.8559Z" fill="#ED1C24"/>
</svg>
